<svg width="420" height="473" viewBox="0 0 420 473" fill="none" xmlns="http://www.w3.org/2000/svg">
<path d="M419.293 139.127C419.29 131.195 417.595 124.186 414.168 118.171C410.801 112.256 405.759 107.298 398.997 103.378C343.174 71.1596 287.298 39.0399 231.494 6.7888C216.449 -1.90499 201.863 -1.58804 186.93 7.23055C164.711 20.3468 53.468 84.1412 20.3191 103.36C6.6675 111.27 0.0246094 123.377 0.0213281 139.112C0 203.905 0.0213281 268.696 0 333.491C0.00328125 341.248 1.62586 348.121 4.90219 354.046C8.27039 360.14 13.3826 365.234 20.3011 369.243C53.4516 388.462 164.709 452.251 186.923 465.371C201.862 474.194 216.449 474.509 231.499 465.812C287.305 433.56 343.184 401.442 399.015 369.223C405.933 365.216 411.045 360.119 414.414 354.03C417.685 348.105 419.311 341.232 419.314 333.473C419.314 333.473 419.314 203.921 419.293 139.127Z" fill="white"/>
</svg>
