<svg width="473" height="473" viewBox="0 0 473 473" fill="none" xmlns="http://www.w3.org/2000/svg">
<g clip-path="url(#clip0_185_49)">
<path d="M0 0H473V473H0V0Z" fill="white"/>
<path d="M317.736 369.533C327.264 385.09 339.659 396.524 361.583 396.524C380 396.524 391.764 387.319 391.764 374.601C391.764 359.36 379.677 353.962 359.405 345.095L348.293 340.327C316.22 326.663 294.912 309.545 294.912 273.356C294.912 240.021 320.311 214.644 360.006 214.644C388.266 214.644 408.582 224.48 423.223 250.232L388.611 272.456C380.991 258.791 372.769 253.408 360.006 253.408C346.987 253.408 338.736 261.667 338.736 272.456C338.736 285.79 346.995 291.188 366.065 299.447L377.177 304.207C414.941 320.401 436.264 336.911 436.264 374.03C436.264 414.048 404.828 435.971 362.611 435.971C321.332 435.971 294.664 416.3 281.616 390.518L317.736 369.533ZM160.723 373.385C167.705 385.773 174.057 396.246 189.328 396.246C203.931 396.246 213.143 390.533 213.143 368.317V217.182H257.59V368.917C257.59 414.941 230.607 435.888 191.22 435.888C155.632 435.888 135.023 417.471 124.542 395.289L160.723 373.385Z" fill="black"/>
</g>
<defs>
<clipPath id="clip0_185_49">
<rect width="473" height="473" fill="white"/>
</clipPath>
</defs>
</svg>
