<svg width="439" height="439" viewBox="0 0 439 439" fill="none" xmlns="http://www.w3.org/2000/svg">
<g clip-path="url(#clip0_185_52)">
<path d="M397.5 354.946H327.758C322.431 354.946 318.129 350.644 318.129 345.317V87.8585C318.158 82.5612 322.46 78.2883 327.758 78.259H397.5C402.797 78.259 407.129 82.532 407.158 87.8585V345.317C407.158 350.615 402.885 354.946 397.559 354.946C397.559 354.946 397.559 354.946 397.529 354.946H397.5Z" fill="white"/>
<path d="M74.2203 355.912L11.9116 324.538C7.1704 322.138 5.2388 316.373 7.63866 311.602L123.213 81.6833C125.613 76.9421 131.378 75.0105 136.149 77.4104L198.457 108.726C203.199 111.126 205.13 116.891 202.73 121.662L87.1269 351.639C84.7271 356.38 78.9615 358.312 74.1911 355.912H74.2203Z" fill="white"/>
<path d="M258.249 350.732L307.651 100.033C308.675 94.824 305.31 89.7901 300.129 88.7365L231.762 74.9227C226.524 73.8691 221.461 77.264 220.407 82.5027L171.005 333.23C169.98 338.44 173.346 343.474 178.556 344.527L246.893 358.312C252.103 359.365 257.166 356.029 258.249 350.82V350.732Z" fill="white"/>
</g>
<defs>
<clipPath id="clip0_185_52">
<rect width="439" height="439" fill="white"/>
</clipPath>
</defs>
</svg>
