<svg width="1148" height="640" viewBox="0 0 1148 640" fill="none" xmlns="http://www.w3.org/2000/svg">
<path fill-rule="evenodd" clip-rule="evenodd" d="M1148 128C1148 198.667 1095.29 256 1030.23 256C975.417 256 929.306 215.2 916.2 160H751.844C723.049 160 698.51 182.613 693.775 213.493L688.943 245.067C684.421 274.258 670.884 300.766 650.677 320C670.384 338.88 684.351 365.013 688.943 394.933L693.727 426.507C696.199 441.644 703.395 455.318 714.04 465.108C724.685 474.898 738.094 480.173 751.892 480H798.53C811.588 424.8 857.699 384 912.564 384C977.618 384 1030.28 441.333 1030.28 512C1030.28 582.667 977.522 640 912.564 640C857.699 640 811.636 599.2 798.53 544H751.892C694.301 544 645.224 498.773 635.753 437.067L630.922 405.493C628.452 390.374 621.271 376.715 610.645 366.927C600.02 357.139 586.634 351.852 572.852 352H524.732C509.999 404.48 465.131 442.667 412.036 442.667C358.941 442.667 314.074 404.48 299.389 352H230.413C215.68 404.48 170.813 442.667 117.766 442.667C52.7123 442.667 0 385.333 0 314.667C0 244 52.7123 186.667 117.766 186.667C174.352 186.667 221.66 230.133 232.948 288H296.901C308.19 230.133 355.497 186.667 412.084 186.667C468.719 186.667 515.978 230.133 527.267 288H572.804C601.552 288 626.138 265.387 630.826 234.507L635.705 202.933C645.176 141.227 694.301 96 751.844 96H916.2C929.306 40.8 975.417 0 1030.23 0C1095.29 0 1148 57.3333 1148 128ZM1089.16 128C1089.16 163.36 1062.76 192 1030.23 192C997.708 192 971.399 163.36 971.399 128C971.399 92.64 997.708 64 1030.23 64C1062.76 64 1089.12 92.64 1089.12 128H1089.16ZM117.718 378.667C150.244 378.667 176.553 350.027 176.553 314.667C176.553 279.307 150.244 250.667 117.718 250.667C85.1912 250.667 58.835 279.307 58.835 314.667C58.835 350.027 85.1912 378.667 117.718 378.667ZM412.036 378.667C444.563 378.667 470.919 350.027 470.919 314.667C470.919 279.307 444.611 250.667 412.084 250.667C379.557 250.667 353.201 279.307 353.201 314.667C353.201 350.027 379.51 378.667 412.036 378.667ZM912.469 576C944.995 576 971.304 547.36 971.304 512C971.304 476.64 944.995 448 912.469 448C879.942 448 853.634 476.64 853.634 512C853.634 547.36 879.942 576 912.469 576Z" fill="white"/>
</svg>
