<svg width="568" height="568" viewBox="0 0 568 568" fill="none" xmlns="http://www.w3.org/2000/svg">
<path d="M265.4 0.152851C264.178 0.26388 260.292 0.652484 256.794 0.930058C176.119 8.2025 100.552 51.7261 52.6913 118.621C26.0403 155.816 8.99472 198.008 2.55406 242.697C0.277615 258.297 0 262.904 0 284.056C0 305.207 0.277615 309.814 2.55406 325.414C17.9894 432.058 93.8893 521.659 196.829 554.857C215.263 560.797 234.696 564.85 256.794 567.292C265.4 568.236 302.6 568.236 311.206 567.292C349.351 563.073 381.665 553.636 413.535 537.37C418.421 534.872 419.365 534.205 418.699 533.65C418.255 533.317 397.433 505.393 372.448 471.64L327.03 410.296L270.119 326.08C238.804 279.781 213.042 241.92 212.82 241.92C212.597 241.864 212.375 279.281 212.264 324.97C212.098 404.967 212.042 408.187 211.043 410.074C209.599 412.794 208.489 413.905 206.157 415.126C204.38 416.014 202.825 416.181 194.441 416.181H184.836L182.282 414.571C180.616 413.516 179.395 412.128 178.562 410.518L177.396 408.02L177.507 296.713L177.674 185.35L179.395 183.185C180.283 182.019 182.171 180.52 183.503 179.799C185.78 178.688 186.668 178.577 196.274 178.577C207.6 178.577 209.488 179.022 212.431 182.241C213.264 183.13 244.079 229.54 280.946 285.443C317.813 341.347 368.228 417.68 392.992 455.152L437.965 523.269L440.242 521.77C460.396 508.669 481.717 490.016 498.596 470.585C534.52 429.338 557.673 379.041 565.446 325.414C567.722 309.814 568 305.207 568 284.056C568 262.904 567.722 258.297 565.446 242.697C550.011 136.053 474.111 46.4522 371.171 13.2543C353.015 7.36978 333.693 3.3172 312.039 0.874543C306.709 0.319395 270.008 -0.291268 265.4 0.152851ZM381.665 171.916C384.33 173.248 386.495 175.802 387.273 178.466C387.717 179.91 387.828 210.776 387.717 280.336L387.55 380.152L369.95 353.172L352.293 326.191V253.633C352.293 206.723 352.515 180.354 352.848 179.077C353.737 175.968 355.68 173.526 358.345 172.082C360.622 170.916 361.455 170.805 370.172 170.805C378.389 170.805 379.833 170.916 381.665 171.916Z" fill="white"/>
</svg>
