<svg width="427" height="471" viewBox="0 0 427 471" fill="none" xmlns="http://www.w3.org/2000/svg">
<path d="M194.182 5.02437C205.846 -1.65969 221.039 -1.68988 232.693 5.02437C291.324 38.1914 349.974 71.3064 408.595 104.494C419.621 110.711 426.996 122.996 426.884 135.715V335.261C426.966 348.506 418.862 361.084 407.229 367.161C348.791 400.145 290.383 433.17 231.954 466.154C220.049 472.969 204.551 472.444 193.018 465.071C175.498 454.903 157.948 444.785 140.426 434.627C136.846 432.491 132.81 430.79 130.282 427.314C132.517 424.299 136.513 423.923 139.76 422.606C147.073 420.278 153.789 416.541 160.508 412.915C162.207 411.751 164.281 412.197 165.909 413.238C180.891 421.838 195.74 430.687 210.772 439.205C213.979 441.058 217.226 438.598 219.967 437.068C277.313 404.62 334.729 372.295 392.065 339.838C394.19 338.815 395.364 336.557 395.192 334.227C395.232 268.401 395.202 202.564 395.212 136.738C395.455 134.095 393.927 131.664 391.539 130.582C333.303 97.7491 275.098 64.8656 216.872 32.024C215.863 31.3296 214.668 30.9571 213.444 30.9553C212.22 30.9535 211.024 31.3225 210.013 32.0139C151.787 64.8656 93.5918 97.7793 35.3661 130.611C32.987 131.694 31.3903 134.085 31.6735 136.738C31.6835 202.564 31.6735 268.401 31.6735 334.237C31.5725 335.374 31.8219 336.515 32.3881 337.505C32.9542 338.496 33.8099 339.289 34.84 339.778C50.3778 348.598 65.9357 357.357 81.4836 366.148C90.2426 370.868 100.997 373.673 110.648 370.056C119.164 366.999 125.133 358.298 124.971 349.246C125.051 283.804 124.93 218.352 125.031 152.921C124.818 150.016 127.571 147.615 130.392 147.889C137.858 147.839 145.334 147.788 152.799 147.909C155.916 147.839 158.06 150.967 157.675 153.894C157.645 219.75 157.755 285.607 157.624 351.463C157.645 369.015 150.442 388.112 134.226 396.7C114.248 407.061 89.5557 404.864 69.8193 394.929C52.7335 386.392 36.4283 376.316 19.6457 367.17C7.98312 361.126 -0.0806533 348.498 0.00144203 335.262V135.715C-0.120863 122.733 7.54751 110.225 18.9169 104.098C77.3453 71.0867 135.764 38.0505 194.182 5.02437Z" fill="white"/>
<path d="M245.155 143.251C270.638 141.609 297.919 142.278 320.85 154.846C338.605 164.477 348.448 184.691 348.761 204.437C348.265 207.101 345.484 208.57 342.944 208.387C335.55 208.377 328.155 208.488 320.761 208.337C317.625 208.458 315.802 205.563 315.408 202.787C313.284 193.339 308.137 183.981 299.254 179.424C285.618 172.589 269.807 172.933 254.938 173.075C244.083 173.652 232.41 174.593 223.214 180.984C216.153 185.824 214.009 195.596 216.529 203.466C218.904 209.117 225.42 210.94 230.751 212.621C261.462 220.662 294.005 219.862 324.129 230.444C336.601 234.758 348.801 243.145 353.07 256.217C358.654 273.739 356.206 294.681 343.755 308.747C333.657 320.322 318.95 326.622 304.282 330.044C284.768 334.4 264.518 334.511 244.701 332.577C226.067 330.45 206.676 325.549 192.291 312.838C179.99 302.145 173.982 285.485 174.578 269.404C174.72 266.689 177.421 264.795 180.02 265.018C187.465 264.958 194.911 264.938 202.356 265.028C205.33 264.815 207.535 267.388 207.688 270.194C209.061 279.197 212.441 288.645 220.282 293.982C235.414 303.756 254.401 303.086 271.729 303.36C286.084 302.722 302.198 302.53 313.912 293.031C320.093 287.613 321.924 278.549 320.254 270.751C318.444 264.168 311.565 261.1 305.657 259.094C275.341 249.493 242.434 252.977 212.411 242.12C200.222 237.807 188.435 229.654 183.753 217.118C177.218 199.375 180.212 177.429 193.969 163.838C207.383 150.319 226.745 145.114 245.155 143.251Z" fill="white"/>
</svg>
