<svg width="473" height="473" viewBox="0 0 473 473" fill="none" xmlns="http://www.w3.org/2000/svg">
<g clip-path="url(#clip0_185_46)">
<path d="M0 236.5V0H473V473H0" fill="white"/>
<path d="M103.705 237.328V256.603H165.195V431.613H208.829V256.603H270.319V237.683C270.319 227.04 270.319 218.408 269.846 218.171C269.846 217.817 232.361 217.698 186.835 217.698L104.06 218.053V237.446L103.705 237.328ZM380.055 217.58C392.117 220.418 401.34 225.858 409.618 234.49C413.993 239.22 420.497 247.497 420.97 249.626C420.97 250.335 400.513 264.17 388.096 271.857C387.623 272.211 385.731 270.201 383.839 267.127C377.69 258.376 371.423 254.592 361.608 253.883C347.418 252.937 337.958 260.387 337.958 272.803C337.958 276.587 338.668 278.715 340.087 281.79C343.28 288.294 349.192 292.196 367.521 300.237C401.34 314.781 416.003 324.36 424.872 338.077C434.923 353.449 437.17 377.572 430.43 395.665C422.862 415.412 404.415 428.775 378.045 433.15C369.768 434.569 350.848 434.332 341.979 432.795C323.059 429.248 304.967 419.788 293.851 407.608C289.476 402.878 281.08 390.225 281.553 389.397L286.047 386.559L303.784 376.272L317.146 368.467L320.221 372.606C324.123 378.755 332.874 387.032 337.958 389.87C353.331 397.793 373.906 396.729 384.076 387.505C388.451 383.485 390.343 379.228 390.343 373.315C390.343 367.876 389.515 365.393 386.796 361.254C383.012 356.051 375.444 351.794 354.159 342.334C329.681 331.928 319.275 325.306 309.578 315.136C304.021 308.987 298.936 299.409 296.571 291.486C294.797 284.628 294.206 267.836 295.861 261.096C300.946 237.446 318.802 220.891 344.344 216.161C352.621 214.506 372.133 215.215 380.292 217.344L380.055 217.58Z" fill="black"/>
</g>
<defs>
<clipPath id="clip0_185_46">
<rect width="473" height="473" fill="white"/>
</clipPath>
</defs>
</svg>
